<?xml version="1.0" encoding="utf-8"?>
<!-- Generator: Adobe Illustrator 24.0.1, SVG Export Plug-In . SVG Version: 6.00 Build 0)  -->
<svg version="1.1" id="Layer_1" xmlns="http://www.w3.org/2000/svg" xmlns:xlink="http://www.w3.org/1999/xlink" x="0px" y="0px"
	 viewBox="0 0 16 16" style="enable-background:new 0 0 16 16;" xml:space="preserve">
<style type="text/css">
	.st0{fill:#15D17C;}
</style>
<g>
	<path class="st0" d="M7.14,8.2C6.92,8.64,6.72,9.1,6.54,9.55C6.37,10,6.25,10.48,6.27,10.94c0,0.12,0.02,0.23,0.04,0.35
		c0.01,0.06,0.03,0.12,0.04,0.17c0.02,0.05,0.04,0.1,0.06,0.15c0.05,0.1,0.11,0.18,0.18,0.24c0.07,0.06,0.15,0.08,0.24,0.06
		c0.09-0.02,0.17-0.07,0.26-0.14c0.09-0.07,0.16-0.15,0.23-0.24c0.14-0.18,0.24-0.39,0.33-0.61C7.83,10.48,7.92,10,7.98,9.51
		c0.06-0.49,0.11-0.98,0.15-1.47c0.04-0.53,0.05-1.06,0.03-1.59C7.77,7,7.44,7.59,7.14,8.2z"/>
	<path class="st0" d="M14.78,3.82c-1.39-1.92-4.03-2.91-6.66-3.27C5.49,0.18,2.84,0.44,1.4,1.88c-1.43,1.45-1.66,4.1-1.17,6.52
		c0.5,2.42,1.71,4.62,3.57,5.89c1.86,1.27,4.36,1.64,6.59,1.01c2.23-0.63,4.17-2.24,5.05-4.48C16.34,8.59,16.17,5.74,14.78,3.82z
		 M11.18,5.12c-0.03,0.01-0.07,0-0.08-0.03c-0.12-0.19-0.33-0.3-0.56-0.33c-0.11-0.02-0.23-0.01-0.34,0.01
		c-0.06,0.01-0.11,0.02-0.17,0.04C9.97,4.82,9.91,4.84,9.86,4.86c-0.21,0.1-0.41,0.22-0.59,0.37c0.04,0.16,0.07,0.31,0.1,0.47
		c0.06,0.27,0.09,0.55,0.12,0.82c0.06,0.55,0.07,1.09,0.06,1.61c0,0.26-0.02,0.53-0.04,0.78L9.48,9.3C9.47,9.43,9.46,9.56,9.45,9.7
		c-0.03,0.27-0.07,0.55-0.13,0.84c-0.06,0.29-0.14,0.59-0.25,0.91c-0.12,0.32-0.29,0.66-0.55,1c-0.13,0.17-0.3,0.34-0.49,0.49
		c-0.05,0.04-0.1,0.07-0.15,0.11c-0.06,0.04-0.13,0.08-0.21,0.12c-0.15,0.08-0.34,0.16-0.57,0.19c-0.23,0.04-0.5,0.03-0.74-0.04
		c-0.25-0.07-0.46-0.19-0.63-0.31c-0.33-0.26-0.49-0.54-0.61-0.78c-0.06-0.13-0.1-0.25-0.14-0.37c-0.01-0.03-0.02-0.07-0.02-0.09
		l-0.02-0.07L4.9,11.57c-0.03-0.19-0.05-0.38-0.05-0.56c0-0.38,0.05-0.73,0.13-1.06c0.08-0.32,0.2-0.61,0.32-0.88
		c0.12-0.27,0.24-0.49,0.36-0.72c0.13-0.23,0.26-0.46,0.4-0.68C6.19,7.44,6.34,7.22,6.5,7C6.65,6.78,6.8,6.57,6.98,6.36
		C7.29,5.97,7.64,5.6,8.04,5.27c-0.01-0.05-0.02-0.1-0.03-0.15C7.91,4.64,7.78,4.17,7.57,3.73c-0.1-0.22-0.23-0.42-0.39-0.58
		C7.1,3.08,7,3.01,6.91,2.97C6.86,2.95,6.8,2.93,6.75,2.92L6.67,2.91c-0.02,0-0.05,0-0.07,0C6.4,2.93,6.21,3.08,6.05,3.26
		c-0.16,0.18-0.28,0.38-0.4,0.6C5.55,4.07,5.45,4.29,5.37,4.53C5.3,4.76,5.24,4.99,5.21,5.23c0,0.04-0.04,0.07-0.08,0.07
		c-0.03,0-0.06-0.03-0.07-0.06l0-0.01c-0.05-0.26-0.04-0.53-0.02-0.8c0.03-0.27,0.07-0.53,0.15-0.8c0.08-0.27,0.18-0.53,0.35-0.8
		c0.09-0.13,0.19-0.27,0.34-0.4C6.04,2.3,6.24,2.17,6.52,2.12C6.59,2.11,6.66,2.1,6.73,2.1c0.06,0,0.12,0,0.18,0.01
		c0.11,0.01,0.23,0.04,0.34,0.07C7.46,2.26,7.65,2.37,7.8,2.49c0.16,0.12,0.29,0.26,0.4,0.39c0.11,0.14,0.21,0.28,0.28,0.4
		c0.08,0.13,0.15,0.26,0.22,0.39c0.07,0.13,0.13,0.26,0.18,0.4c0.07,0.17,0.14,0.34,0.19,0.51c0.18-0.08,0.37-0.15,0.57-0.2
		c0.08-0.02,0.14-0.03,0.22-0.04c0.08-0.01,0.17-0.02,0.25-0.02c0.16,0,0.32,0.03,0.47,0.08c0.15,0.05,0.28,0.13,0.39,0.24
		c0.11,0.1,0.2,0.23,0.24,0.37l0,0.02C11.24,5.06,11.22,5.1,11.18,5.12z"/>
</g>
</svg>
